<?xml version="1.0" standalone="no"?>
<!DOCTYPE svg PUBLIC "-//W3C//DTD SVG 20010904//EN"
 "http://www.w3.org/TR/2001/REC-SVG-20010904/DTD/svg10.dtd">
<svg version="1.0" xmlns="http://www.w3.org/2000/svg"
 width="210.000000pt" height="340.000000pt" viewBox="0 0 210.000000 340.000000"
 preserveAspectRatio="xMidYMid meet">

<g transform="translate(0.000000,340.000000) scale(0.100000,-0.100000)"
fill="#000000" stroke="none">
<path d="M275 3312 c-40 -14 -81 -45 -105 -80 l-25 -36 -3 -1489 c-2 -1483 -2
-1490 18 -1533 12 -24 38 -54 62 -70 l41 -29 816 0 816 0 36 24 c20 14 47 41
60 60 l24 35 3 1489 c2 1483 2 1490 -18 1533 -12 24 -38 54 -62 70 l-41 29
-801 2 c-441 0 -810 -2 -821 -5z m1613 -56 c59 -31 76 -61 80 -142 l4 -74
-196 0 c-108 0 -196 3 -196 8 -1 4 19 55 42 114 l43 108 98 0 c65 0 107 -5
125 -14z m-1325 -17 c27 -12 47 -47 47 -83 0 -32 -46 -76 -79 -76 -55 0 -94
65 -71 119 18 44 59 60 103 40z m970 0 c27 -12 47 -47 47 -83 0 -32 -46 -76
-79 -76 -55 0 -94 65 -71 119 18 44 59 60 103 40z m-243 -64 c0 -13 -26 -15
-170 -15 -144 0 -170 2 -170 15 0 13 26 15 170 15 144 0 170 -2 170 -15z m210
-189 c0 -2 -8 -23 -19 -47 -10 -24 -45 -105 -76 -179 -99 -232 -104 -242 -123
-235 -13 5 -114 24 -129 25 -1 0 -3 24 -5 53 -3 44 -6 52 -23 52 -17 0 -20 -8
-23 -52 l-3 -51 -62 -7 c-269 -31 -501 -241 -573 -519 -37 -141 -26 -313 27
-449 45 -115 153 -254 248 -319 l24 -17 -174 -420 -174 -420 -112 -1 -113 0 0
1295 0 1295 655 0 c360 0 655 -2 655 -4z m-72 -522 c81 -46 179 -137 231 -217
159 -245 160 -557 2 -799 -151 -232 -423 -349 -682 -294 -64 14 -199 69 -199
81 0 3 4 15 10 25 10 18 12 18 54 -6 59 -33 186 -64 260 -64 163 1 308 62 426
179 86 85 136 167 172 281 19 62 23 96 22 200 0 110 -3 135 -28 205 -58 169
-180 312 -323 381 -40 20 -73 37 -73 39 0 2 3 11 6 20 9 22 41 14 122 -31z
m-328 -190 l0 -226 -66 -156 c-36 -87 -79 -191 -95 -232 -17 -41 -40 -97 -53
-125 -12 -27 -40 -94 -62 -147 -21 -54 -42 -98 -45 -98 -3 0 -33 25 -67 55
-290 263 -293 730 -6 994 97 89 253 157 367 160 l27 1 0 -226z m143 210 c20
-3 37 -8 37 -9 0 -5 -87 -218 -108 -265 l-21 -45 0 168 -1 169 28 -6 c15 -3
44 -8 65 -12z m-102 -557 c-5 -5 -17 -7 -25 -4 -24 9 -20 91 7 156 l22 54 3
-98 c1 -54 -2 -103 -7 -108z m827 -1651 c-3 -63 -7 -79 -28 -101 -54 -57 -17
-55 -825 -55 -410 0 -745 2 -745 3 0 3 57 143 87 215 4 9 166 12 760 12 l755
0 -4 -74z"/>
<path d="M1693 3238 c-48 -23 -54 -98 -11 -138 30 -28 70 -25 102 6 40 41 30
110 -21 133 -29 13 -41 13 -70 -1z m69 -35 c22 -20 23 -51 1 -75 -20 -22 -41
-23 -65 -1 -22 20 -23 51 -1 75 20 22 41 23 65 1z"/>
</g>
</svg>
